<svg xmlns="http://www.w3.org/2000/svg" version="1.1" xmlns:xlink="http://www.w3.org/1999/xlink" xmlns:svgjs="http://svgjs.com/svgjs" width="87" height="92"><svg width="87" height="92" viewBox="0 0 87 92" fill="none" xmlns="http://www.w3.org/2000/svg">
<g id="SvgjsG1005">
<path id="SvgjsPath1004" d="M61.9537 26.9082C65.4902 24.8764 69.1474 22.775 72.081 17.7952C72.3016 17.4226 72.7966 17.2878 73.1869 17.4991C73.5771 17.7095 73.7169 18.1822 73.4962 18.5555C70.3533 23.8928 66.3359 26.201 62.7914 28.2373C59.9435 29.873 57.2526 31.4178 55.2963 34.3317C55.0816 34.6514 54.8999 34.9973 54.7122 35.3382C58.7858 36.7376 63.7994 36.0236 68.5413 33.342C74.0452 30.2281 77.8579 25.2172 78.4877 20.2638C79.189 14.7305 77.8531 10.695 75.6985 6.07855C73.9849 10.3466 69.947 12.9971 66.0234 15.5711C62.498 17.8846 58.852 20.2759 56.9052 23.8269C54.7945 27.6722 54.349 30.8049 54.3847 32.8787C56.4838 30.0709 59.1418 28.5228 61.9537 26.9082Z" fill="#108210"></path>
<path id="SvgjsPath1003" d="M76.1535 66.5C76.1815 66.2166 76.2115 65.9335 76.2115 65.643C76.2115 60.695 71.9943 56.6693 66.8093 56.6693C64.6895 56.6693 62.6904 57.3259 61.0245 58.5685C60.766 58.7631 60.4121 58.7859 60.1249 58.6321C59.8394 58.4783 59.6791 58.1748 59.7188 57.8634C59.76 57.5348 59.7822 57.1993 59.7822 56.8593C59.7822 52.2991 55.895 48.5891 51.1178 48.5891C46.9434 48.5891 43.3625 51.4275 42.5993 55.338C42.5455 55.6144 42.3407 55.8407 42.0615 55.9308C41.7805 56.0195 41.4744 55.9597 41.2571 55.7719C39.6641 54.3989 37.6031 53.6432 35.4549 53.6432C32.691 53.6432 30.1708 54.8699 28.5371 56.9491C31.4494 58.3226 33.5649 59.669 35.458 60.8804C39.1596 63.25 42.0837 65.1212 49.0457 65.774C55.389 66.3677 59.9409 69.1189 60.117 72.4629C60.1581 73.2565 59.9207 73.9933 59.4842 74.6719C63.5243 73.4395 70.2858 70.9044 76.1535 66.5Z" fill="#108210"></path>
<path id="SvgjsPath1002" d="M85.6817 64.7017C84.157 63.949 81.5042 64.0603 79.5891 65.7551C69.9958 74.2594 56.8412 77.0259 56.2454 77.1469C55.2896 77.5564 54.1869 77.8954 52.9247 78.1365C50.3052 78.6371 48.1252 78.8309 46.2514 78.8309C42.7799 78.8309 40.3619 78.1645 38.1376 77.5518C35.0453 76.7014 32.3719 75.9653 27.4788 76.971C27.0202 77.0642 26.6077 76.7938 26.5125 76.3766C26.4189 75.9577 26.6982 75.5451 27.1361 75.455C32.4322 74.366 35.4229 75.1899 38.5882 76.0616C41.9914 76.9998 45.5121 77.9692 52.6073 76.6158C56.3328 75.904 58.5888 74.3425 58.4952 72.5402C58.3826 70.3812 55.046 67.8943 48.8884 67.3173C41.5202 66.6267 38.4454 64.6593 34.5535 62.1686C32.3274 60.7434 29.8047 59.1289 25.9936 57.5204C17.0515 53.7433 2.54284 63.5894 0 65.3958L6.29067 87.9527C8.02021 87.2905 11.2883 86.2079 13.6119 86.4711C17.4626 86.9026 21.337 87.7243 25.0831 88.5195C27.2757 88.9853 29.5429 89.4668 31.7626 89.8591C37.7298 90.914 44.0921 91.8969 50.4622 91.338C59.1885 90.574 67.6754 86.8587 76.4112 79.9781L76.8554 79.6291C81.2392 76.182 86.2084 72.2752 86.97 66.8727C87.1349 65.6862 86.3607 65.0371 85.6817 64.7017Z" fill="#108210"></path>
<path id="SvgjsPath1001" d="M31.3614 15.8763C34.7567 20.9022 38.2663 26.0994 44.4144 26.3214C46.108 26.3704 47.9873 26.0052 49.7304 25.5902C47.4583 19.2514 43.0432 13.7297 36.813 9.70828C36.4418 9.46899 36.3434 8.98662 36.5956 8.63137C36.8495 8.27859 37.3524 8.18545 37.7237 8.42389C43.9538 12.4448 48.4146 17.9082 50.8679 24.1713C51.3762 22.4968 51.3725 20.3987 51.3637 18.7494L51.3606 18.0951C51.3606 12.5291 49.2408 7.88094 45.2284 4.65269C40.3812 0.751241 32.9274 -0.831412 25.2911 0.420323C22.2227 0.923042 19.2763 2.44303 17.7246 3.35098C19.6746 4.36342 23.4871 6.53531 26.3335 9.34243C28.1771 11.1614 29.7241 13.4515 31.3614 15.8763Z" fill="#108210"></path>
<path id="SvgjsPath1000" d="M51.0123 41.3632C50.6508 43.3294 50.4602 45.2889 50.3508 47.0973L51.9783 47.0787C52.1829 43.7798 53.1338 40.2649 54.0291 36.7404C53.5502 31.4421 51.7077 26.1731 51.7077 26.1731L50.2012 27.0772C51.5438 31.5501 51.8585 36.3841 51.0123 41.3632Z" fill="#108210"></path>
</g>
</svg><style>@media (prefers-color-scheme: light) { :root { filter: none; } }
</style></svg>