<svg width="20" height="24" viewBox="0 0 20 24" fill="none" xmlns="http://www.w3.org/2000/svg">
<g id="Group">
<path id="Vector" d="M16.2216 17C17.6166 18.9881 18.2836 20.0471 17.8866 20.9001C17.8466 20.9854 17.8 21.0678 17.7466 21.1471C17.1716 22.0001 15.6866 22.0001 12.7165 22.0001H7.28246C4.31242 22.0001 2.82839 22.0001 2.25338 21.1471C2.20093 21.0682 2.15414 20.9857 2.11338 20.9001C1.71638 20.0481 2.38339 18.9881 3.77841 17M12.4995 8.99982C12.4995 9.66287 12.2361 10.2988 11.7673 10.7676C11.2984 11.2365 10.6626 11.4999 9.9995 11.4999C9.33645 11.4999 8.70056 11.2365 8.23171 10.7676C7.76286 10.2988 7.49946 9.66287 7.49946 8.99982C7.49946 8.33676 7.76286 7.70086 8.23171 7.23201C8.70056 6.76315 9.33645 6.49976 9.9995 6.49976C10.6626 6.49976 11.2984 6.76315 11.7673 7.23201C12.2361 7.70086 12.4995 8.33676 12.4995 8.99982Z" stroke="white" stroke-width="2.375" stroke-linecap="round" stroke-linejoin="round"/>
<path id="Vector_2" d="M11.2576 17.4944C10.9198 17.8194 10.4693 18.0009 10.0006 18.0009C9.53186 18.0009 9.08134 17.8194 8.74357 17.4944C5.65452 14.5013 1.51546 11.1582 3.53349 6.30411C4.6265 3.67904 7.24654 2 10.0006 2C12.7546 2 15.3757 3.68004 16.4677 6.30411C18.4837 11.1512 14.3547 14.5113 11.2576 17.4944Z" stroke="white" stroke-width="2.375" stroke-linecap="round" stroke-linejoin="round"/>
</g>
</svg>
