<svg width="18" height="18" viewBox="0 0 18 18" fill="none" xmlns="http://www.w3.org/2000/svg">
<path id="Vector" d="M13.0075 17.4987C14.564 17.4987 15.5931 17.0781 16.5053 16.0582C16.5771 15.9868 16.6397 15.9063 16.7114 15.8345C17.2481 15.2353 17.4985 14.6448 17.4985 14.0814C17.4985 13.4371 17.1229 12.8378 16.3267 12.2828L13.7235 10.4759C12.9181 9.92129 11.9788 9.85869 11.2272 10.6011L10.5386 11.2901C10.3325 11.4958 10.1539 11.5049 9.94815 11.3794C9.47409 11.0752 8.49885 10.2255 7.83661 9.56364C7.13887 8.87468 6.45907 8.10556 6.1102 7.54179C5.985 7.33568 6.00294 7.16582 6.20867 6.96009L6.88848 6.27112C7.64004 5.51995 7.57744 4.57143 7.02283 3.77559L5.20672 1.17242C4.66089 0.375823 4.06163 0.0090132 3.41733 0.000234181C2.85394 -0.00892653 2.26346 0.250627 1.6642 0.787292C1.58366 0.859051 1.5119 0.921649 1.43136 0.984248C0.420629 1.8965 0 2.92556 0 4.47295C0 7.03185 1.5745 10.145 4.46432 13.0344C7.33582 15.9063 10.4581 17.4987 13.0075 17.4987ZM13.0166 16.1208C10.7352 16.1655 7.81027 14.4123 5.49299 12.1042C3.15816 9.77815 1.3241 6.75435 1.36876 4.47333C1.3867 3.48894 1.72679 2.63928 2.4337 2.03086C2.48713 1.97742 2.54057 1.93238 2.60317 1.88772C2.86272 1.65489 3.15816 1.53007 3.40855 1.53007C3.67688 1.53007 3.90933 1.62817 4.07957 1.8965L5.81515 4.49967C6.00294 4.77716 6.02088 5.09054 5.74339 5.36765L4.95633 6.15509C4.32996 6.77229 4.38378 7.52385 4.83113 8.12312C5.3407 8.81208 6.22661 9.81403 6.90642 10.4938C7.59538 11.1828 8.67749 12.1489 9.36645 12.6676C9.96571 13.1149 10.7264 13.16 11.3436 12.5424L12.1307 11.7553C12.4082 11.4778 12.7124 11.4958 12.9895 11.6748L15.5927 13.4104C15.8614 13.589 15.9687 13.8127 15.9687 14.0814C15.9687 14.341 15.8435 14.6272 15.6022 14.8952C15.5602 14.9541 15.5154 15.0109 15.4679 15.0654C14.8507 15.7632 14.0006 16.1029 13.0166 16.1208Z" fill="white"/>
</svg>
