<svg width="16" height="16" viewBox="0 0 16 16" fill="none" xmlns="http://www.w3.org/2000/svg">
<path id="Vector" d="M1.43644 16C1.02696 16 0.685333 15.824 0.411556 15.472C0.137778 15.12 0.000592593 14.6804 0 14.1531V1.84686C0 1.32038 0.137185 0.881142 0.411556 0.529143C0.685926 0.177143 1.02726 0.000761905 1.43556 0H14.5644C14.9733 0 15.3147 0.176381 15.5884 0.529143C15.8622 0.881904 15.9994 1.32114 16 1.84686V14.1543C16 14.68 15.8628 15.1192 15.5884 15.472C15.3141 15.8248 14.9727 16.0008 14.5644 16H1.43644ZM8 8.13257L0.888889 2.15429V14.1543C0.888889 14.3592 0.940148 14.5276 1.04267 14.6594C1.14519 14.7912 1.27644 14.8571 1.43644 14.8571H14.5644C14.7239 14.8571 14.8548 14.7912 14.9573 14.6594C15.0599 14.5276 15.1111 14.3589 15.1111 14.1531V2.15314L8 8.13257ZM8 6.85714L14.8373 1.14286H1.16267L8 6.85714ZM0.888889 2.15429V1.14286V14.1543C0.888889 14.3592 0.940148 14.5276 1.04267 14.6594C1.14519 14.7912 1.27644 14.8571 1.43644 14.8571H0.888889V2.15429Z" fill="black"/>
</svg>
