<svg width="16" height="17" viewBox="0 0 16 17" fill="none" xmlns="http://www.w3.org/2000/svg">
<g id="Icon">
<path id="Vector" d="M5.4375 13.9243L0.234375 8.72119C0.078125 8.56494 0 8.37744 0 8.15869C0 7.93994 0.078125 7.75244 0.234375 7.59619L1.35938 6.45557C1.51562 6.29932 1.70573 6.22119 1.92969 6.22119C2.15365 6.22119 2.34375 6.29932 2.5 6.45557L6 9.95557L13.5 2.45557C13.6562 2.29932 13.8464 2.22119 14.0703 2.22119C14.2943 2.22119 14.4844 2.29932 14.6406 2.45557L15.7656 3.59619C15.9219 3.75244 16 3.93994 16 4.15869C16 4.37744 15.9219 4.56494 15.7656 4.72119L6.5625 13.9243C6.40625 14.0806 6.21875 14.1587 6 14.1587C5.78125 14.1587 5.59375 14.0806 5.4375 13.9243Z" fill="#C5CE38"/>
</g>
</svg>
